<svg width="331" height="60" viewBox="0 0 331 60" fill="none" xmlns="http://www.w3.org/2000/svg">
<path fill-rule="evenodd" clip-rule="evenodd" d="M64.8733 0H28.2273L0 59.4259H36.646L58.5593 44.5694L50.7596 29.713L67.7208 14.8565L64.8733 0ZM53.4833 7.42821H33.6747L33.6747 7.42822L23.7704 28.2273H33.6747L27.3076 41.598H17.3326L13.866 49.0263H23.7704L23.7704 49.0263H33.6747L33.6747 49.0263L43.579 28.2273H33.6747L40.0417 14.8564H50.0168L53.4833 7.42821Z" fill="url(#paint0_linear_304_15)"/>
<path d="M96.368 52.08C92.9547 52.08 90.3733 51.12 88.624 49.2C86.8747 47.2373 86 44.4427 86 40.816V38.256H92.656V41.328C92.656 44.2293 93.872 45.68 96.304 45.68C97.4987 45.68 98.3947 45.3387 98.992 44.656C99.632 43.9307 99.952 42.7787 99.952 41.2C99.952 39.3227 99.5253 37.68 98.672 36.272C97.8187 34.8213 96.24 33.0933 93.936 31.088C91.0347 28.528 89.008 26.224 87.856 24.176C86.704 22.0853 86.128 19.7387 86.128 17.136C86.128 13.5947 87.024 10.864 88.816 8.944C90.608 6.98133 93.2107 6 96.624 6C99.9947 6 102.533 6.98133 104.24 8.944C105.989 10.864 106.864 13.6373 106.864 17.264V19.12H100.208V16.816C100.208 15.28 99.9093 14.1707 99.312 13.488C98.7147 12.7627 97.84 12.4 96.688 12.4C94.3413 12.4 93.168 13.8293 93.168 16.688C93.168 18.3093 93.5947 19.824 94.448 21.232C95.344 22.64 96.944 24.3467 99.248 26.352C102.192 28.912 104.219 31.2373 105.328 33.328C106.437 35.4187 106.992 37.872 106.992 40.688C106.992 44.3573 106.075 47.1733 104.24 49.136C102.448 51.0987 99.824 52.08 96.368 52.08Z" fill="url(#paint1_linear_304_15)"/>
<path d="M122.485 52.08C119.028 52.08 116.383 51.0987 114.549 49.136C112.714 47.1733 111.796 44.4 111.796 40.816V17.264C111.796 13.68 112.714 10.9067 114.549 8.944C116.383 6.98133 119.028 6 122.485 6C125.941 6 128.586 6.98133 130.42 8.944C132.255 10.9067 133.173 13.68 133.173 17.264V40.816C133.173 44.4 132.255 47.1733 130.42 49.136C128.586 51.0987 125.941 52.08 122.485 52.08ZM122.485 45.68C124.917 45.68 126.132 44.208 126.132 41.264V16.816C126.132 13.872 124.917 12.4 122.485 12.4C120.053 12.4 118.836 13.872 118.836 16.816V41.264C118.836 44.208 120.053 45.68 122.485 45.68Z" fill="url(#paint2_linear_304_15)"/>
<path d="M139.214 6.64H146.254V45.04H157.838V51.44H139.214V6.64Z" fill="url(#paint3_linear_304_15)"/>
<path d="M172.733 52.08C169.32 52.08 166.717 51.12 164.925 49.2C163.133 47.2373 162.237 44.4427 162.237 40.816V6.64H169.277V41.328C169.277 42.864 169.576 43.9733 170.174 44.656C170.813 45.3387 171.71 45.68 172.862 45.68C174.014 45.68 174.888 45.3387 175.485 44.656C176.125 43.9733 176.446 42.864 176.446 41.328V6.64H183.229V40.816C183.229 44.4427 182.333 47.2373 180.541 49.2C178.749 51.12 176.147 52.08 172.733 52.08Z" fill="url(#paint4_linear_304_15)"/>
<path d="M198.676 52.08C195.262 52.08 192.681 51.12 190.932 49.2C189.182 47.2373 188.308 44.4427 188.308 40.816V38.256H194.964V41.328C194.964 44.2293 196.18 45.68 198.612 45.68C199.806 45.68 200.702 45.3387 201.3 44.656C201.94 43.9307 202.26 42.7787 202.26 41.2C202.26 39.3227 201.833 37.68 200.98 36.272C200.126 34.8213 198.548 33.0933 196.244 31.088C193.342 28.528 191.316 26.224 190.164 24.176C189.012 22.0853 188.436 19.7387 188.436 17.136C188.436 13.5947 189.332 10.864 191.124 8.944C192.916 6.98133 195.518 6 198.932 6C202.302 6 204.841 6.98133 206.548 8.944C208.297 10.864 209.172 13.6373 209.172 17.264V19.12H202.516V16.816C202.516 15.28 202.217 14.1707 201.62 13.488C201.022 12.7627 200.148 12.4 198.996 12.4C196.649 12.4 195.476 13.8293 195.476 16.688C195.476 18.3093 195.902 19.824 196.756 21.232C197.652 22.64 199.252 24.3467 201.556 26.352C204.5 28.912 206.526 31.2373 207.636 33.328C208.745 35.4187 209.3 37.872 209.3 40.688C209.3 44.3573 208.382 47.1733 206.548 49.136C204.756 51.0987 202.132 52.08 198.676 52.08Z" fill="url(#paint5_linear_304_15)"/>
<path d="M214.616 6.64H221.656V51.44H214.616V6.64Z" fill="url(#paint6_linear_304_15)"/>
<path d="M239.738 6.64H250.363C253.989 6.64 256.635 7.49333 258.299 9.2C259.963 10.864 260.795 13.4453 260.795 16.944V18.736C260.795 21.04 260.411 22.9173 259.643 24.368C258.917 25.8187 257.786 26.864 256.251 27.504V27.632C259.749 28.8267 261.499 31.9413 261.499 36.976V40.816C261.499 44.272 260.581 46.9173 258.747 48.752C256.954 50.544 254.309 51.44 250.811 51.44H239.738V6.64ZM249.531 24.88C250.939 24.88 251.984 24.5173 252.667 23.792C253.392 23.0667 253.755 21.8507 253.755 20.144V17.648C253.755 16.0267 253.456 14.8533 252.859 14.128C252.304 13.4027 251.408 13.04 250.171 13.04H246.779V24.88H249.531ZM250.811 45.04C252.048 45.04 252.965 44.72 253.562 44.08C254.16 43.3973 254.459 42.2453 254.459 40.624V36.72C254.459 34.672 254.096 33.264 253.37 32.496C252.688 31.6853 251.536 31.28 249.915 31.28H246.779V45.04H250.811Z" fill="url(#paint7_linear_304_15)"/>
<path d="M266.893 6.64H286.094V13.04H273.934V24.88H283.598V31.28H273.934V45.04H286.094V51.44H266.893V6.64Z" fill="url(#paint8_linear_304_15)"/>
<path d="M293.087 51.696C291.807 51.696 290.719 51.6107 289.824 51.44V45.04C290.506 45.2107 291.274 45.296 292.128 45.296C293.536 45.296 294.581 44.9547 295.264 44.272C295.946 43.5467 296.288 42.4587 296.288 41.008V6.64H303.327V40.816C303.327 44.4853 302.474 47.216 300.768 49.008C299.104 50.8 296.543 51.696 293.087 51.696Z" fill="url(#paint9_linear_304_15)"/>
<path d="M319.817 52.08C316.361 52.08 313.716 51.0987 311.881 49.136C310.046 47.1733 309.129 44.4 309.129 40.816V17.264C309.129 13.68 310.046 10.9067 311.881 8.944C313.716 6.98133 316.361 6 319.817 6C323.273 6 325.918 6.98133 327.753 8.944C329.588 10.9067 330.505 13.68 330.505 17.264V40.816C330.505 44.4 329.588 47.1733 327.753 49.136C325.918 51.0987 323.273 52.08 319.817 52.08ZM319.817 45.68C322.249 45.68 323.465 44.208 323.465 41.264V16.816C323.465 13.872 322.249 12.4 319.817 12.4C317.385 12.4 316.169 13.872 316.169 16.816V41.264C316.169 44.208 317.385 45.68 319.817 45.68Z" fill="url(#paint10_linear_304_15)"/>
<defs>
<linearGradient id="paint0_linear_304_15" x1="33.8604" y1="0" x2="33.8604" y2="59.4259" gradientUnits="userSpaceOnUse">
<stop stop-color="#A7B5FF"/>
<stop offset="1" stop-color="#F3ACFF"/>
</linearGradient>
<linearGradient id="paint1_linear_304_15" x1="208.253" y1="6" x2="208.253" y2="52.08" gradientUnits="userSpaceOnUse">
<stop stop-color="#B8DBFC"/>
<stop offset="1" stop-color="#F8FBFE"/>
</linearGradient>
<linearGradient id="paint2_linear_304_15" x1="208.253" y1="6" x2="208.253" y2="52.08" gradientUnits="userSpaceOnUse">
<stop stop-color="#B8DBFC"/>
<stop offset="1" stop-color="#F8FBFE"/>
</linearGradient>
<linearGradient id="paint3_linear_304_15" x1="208.253" y1="6" x2="208.253" y2="52.08" gradientUnits="userSpaceOnUse">
<stop stop-color="#B8DBFC"/>
<stop offset="1" stop-color="#F8FBFE"/>
</linearGradient>
<linearGradient id="paint4_linear_304_15" x1="208.253" y1="6" x2="208.253" y2="52.08" gradientUnits="userSpaceOnUse">
<stop stop-color="#B8DBFC"/>
<stop offset="1" stop-color="#F8FBFE"/>
</linearGradient>
<linearGradient id="paint5_linear_304_15" x1="208.253" y1="6" x2="208.253" y2="52.08" gradientUnits="userSpaceOnUse">
<stop stop-color="#B8DBFC"/>
<stop offset="1" stop-color="#F8FBFE"/>
</linearGradient>
<linearGradient id="paint6_linear_304_15" x1="208.253" y1="6" x2="208.253" y2="52.08" gradientUnits="userSpaceOnUse">
<stop stop-color="#B8DBFC"/>
<stop offset="1" stop-color="#F8FBFE"/>
</linearGradient>
<linearGradient id="paint7_linear_304_15" x1="208.253" y1="6" x2="208.253" y2="52.08" gradientUnits="userSpaceOnUse">
<stop stop-color="#B8DBFC"/>
<stop offset="1" stop-color="#F8FBFE"/>
</linearGradient>
<linearGradient id="paint8_linear_304_15" x1="208.253" y1="6" x2="208.253" y2="52.08" gradientUnits="userSpaceOnUse">
<stop stop-color="#B8DBFC"/>
<stop offset="1" stop-color="#F8FBFE"/>
</linearGradient>
<linearGradient id="paint9_linear_304_15" x1="208.253" y1="6" x2="208.253" y2="52.08" gradientUnits="userSpaceOnUse">
<stop stop-color="#B8DBFC"/>
<stop offset="1" stop-color="#F8FBFE"/>
</linearGradient>
<linearGradient id="paint10_linear_304_15" x1="208.253" y1="6" x2="208.253" y2="52.08" gradientUnits="userSpaceOnUse">
<stop stop-color="#B8DBFC"/>
<stop offset="1" stop-color="#F8FBFE"/>
</linearGradient>
</defs>
</svg>
